# xmcd
#
# Track frame offsets:
#	150
#	19188
#	31212
#	49880
#	66927
#	83118
#	96278
#	118014
#
# Disc length: 1789 seconds
#
# Revision: 1
# Processed by: cddbd v1.5.2PL0 Copyright (c) Steve Scherf et al.
# Submitted via: audiograbber 1.83.01
#
DISCID=6506fb08
DTITLE=Various Artist - A Very Country Christmas
DYEAR=2011
DGENRE=Country
TTITLE0=Carrie Underwood - Do You Hear What I Hear?
TTITLE1=Kellie Pickler - Rockin' Around The Christmas Tree
TTITLE2=Chris Young - O Holy Night
TTITLE3=Brad Paisley - What Child Is This?
TTITLE4=The Lunabelles - The Christmas Song
TTITLE5=Jake Owen - Mele Kalikimaka
TTITLE6=Sara Evans - O Come All Ye Faithful
TTITLE7=Ronnie Dunn - Silent Night
EXTD=
EXTT0=
EXTT1=
EXTT2=
EXTT3=
EXTT4=
EXTT5=
EXTT6=
EXTT7=
PLAYORDER=
